<svg xmlns="http://www.w3.org/2000/svg" viewBox="0 0 750 900" width="200" height="200" fill="currentColor"><rect x="0" y="0" width="750" height="30"></rect><rect x="720" y="30" width="30" height="870"></rect><rect x="0" y="870" width="720" height="30"></rect><rect x="0" y="30" width="30" height="840"></rect><rect x="120" y="120" width="60" height="170"></rect><rect x="120" y="380" width="60" height="110"></rect><rect x="120" y="290" width="30" height="90"></rect><rect x="180" y="120" width="300" height="30"></rect><rect x="270" y="150" width="210" height="30"></rect><rect x="270" y="270" width="60" height="80"></rect><rect x="420" y="270" width="60" height="80"></rect><rect x="330" y="300" width="90" height="20"></rect><rect x="570" y="120" width="60" height="230"></rect><rect x="600" y="350" width="30" height="90"></rect><rect x="570" y="720" width="60" height="60"></rect><rect x="600" y="630" width="30" height="90"></rect><rect x="570" y="580" width="60" height="50"></rect><rect x="570" y="440" width="60" height="50"></rect><rect x="480" y="440" width="90" height="20"></rect><rect x="270" y="440" width="210" height="50"></rect><rect x="300" y="580" width="30" height="50"></rect><rect x="420" y="580" width="60" height="50"></rect><rect x="270" y="490" width="30" height="230"></rect><rect x="120" y="750" width="120" height="30"></rect><rect x="330" y="750" width="150" height="30"></rect><rect x="120" y="720" width="360" height="30"></rect><rect x="120" y="580" width="60" height="50"></rect><rect x="180" y="620" width="90" height="10"></rect></svg>