<svg xmlns="http://www.w3.org/2000/svg" viewBox="0 0 1050 900" width="200" height="200" fill="white"><rect x="140" y="130" width="20" height="40"></rect><rect x="160" y="150" width="90" height="20"></rect><rect x="250" y="130" width="20" height="40"></rect><rect x="0" y="0" width="1050" height="30"></rect><rect x="1020" y="30" width="30" height="870"></rect><rect x="130" y="870" width="890" height="30"></rect><rect x="30" y="890" width="100" height="10"></rect><rect x="0" y="30" width="30" height="870"></rect><rect x="30" y="270" width="110" height="30"></rect><rect x="130" y="730" width="40" height="40"></rect><rect x="170" y="750" width="100" height="20"></rect><rect x="270" y="740" width="170" height="30"></rect><rect x="130" y="540" width="40" height="90"></rect><rect x="130" y="440" width="20" height="100"></rect><rect x="130" y="400" width="140" height="40"></rect><rect x="370" y="130" width="40" height="40"></rect><rect x="390" y="170" width="20" height="100"></rect><rect x="370" y="270" width="70" height="30"></rect><rect x="540" y="270" width="30" height="30"></rect><rect x="510" y="130" width="140" height="40"></rect><rect x="510" y="30" width="20" height="100"></rect><rect x="670" y="270" width="110" height="30"></rect><rect x="750" y="130" width="30" height="40"></rect><rect x="920" y="130" width="100" height="20"></rect><rect x="880" y="130" width="40" height="170"></rect><rect x="540" y="700" width="30" height="170"></rect><rect x="670" y="700" width="40" height="70"></rect><rect x="670" y="400" width="40" height="200"></rect><rect x="540" y="400" width="30" height="70"></rect><rect x="440" y="570" width="130" height="30"></rect><rect x="400" y="440" width="40" height="190"></rect><rect x="370" y="400" width="70" height="40"></rect><rect x="810" y="730" width="110" height="40"></rect><rect x="880" y="600" width="40" height="30"></rect><rect x="810" y="400" width="110" height="40"></rect><rect x="880" y="440" width="40" height="60"></rect><rect x="240" y="270" width="10" height="130"></rect><rect x="250" y="270" width="20" height="30"></rect><rect x="440" y="290" width="100" height="10"></rect><rect x="690" y="600" width="20" height="100"></rect><rect x="710" y="540" width="70" height="90"></rect><rect x="770" y="170" width="10" height="100"></rect><rect x="780" y="620" width="100" height="10"></rect><rect x="270" y="640" width="10" height="100"></rect><rect x="270" y="540" width="30" height="100"></rect></svg>