<svg xmlns="http://www.w3.org/2000/svg" viewBox="0 0 1000 1000" width="200" height="200" fill="white"><rect x="40" y="480" width="160" height="40"></rect><rect x="800" y="480" width="160" height="40"></rect><rect x="320" y="480" width="360" height="40"></rect><rect x="0" y="0" width="960" height="40"></rect><rect x="960" y="0" width="40" height="960"></rect><rect x="40" y="960" width="960" height="40"></rect><rect x="0" y="40" width="40" height="960"></rect><rect x="410" y="140" width="40" height="240"></rect><rect x="550" y="140" width="40" height="240"></rect><rect x="410" y="620" width="40" height="240"></rect><rect x="550" y="620" width="40" height="240"></rect><rect x="590" y="240" width="60" height="40"></rect><rect x="140" y="860" width="40" height="100"></rect><rect x="140" y="620" width="40" height="100"></rect><rect x="140" y="720" width="140" height="40"></rect><rect x="380" y="720" width="30" height="40"></rect><rect x="280" y="860" width="170" height="40"></rect><rect x="550" y="860" width="140" height="40"></rect><rect x="690" y="800" width="40" height="100"></rect><rect x="260" y="600" width="70" height="40"></rect><rect x="410" y="460" width="40" height="20"></rect><rect x="550" y="460" width="40" height="20"></rect><rect x="690" y="620" width="40" height="80"></rect><rect x="40" y="340" width="120" height="40"></rect><rect x="310" y="180" width="100" height="30"></rect><rect x="310" y="310" width="100" height="30"></rect><rect x="120" y="140" width="110" height="100"></rect><rect x="730" y="660" width="100" height="40"></rect><rect x="670" y="370" width="110" height="30"></rect><rect x="750" y="240" width="30" height="130"></rect><rect x="840" y="140" width="120" height="40"></rect><rect x="780" y="240" width="100" height="30"></rect><rect x="860" y="370" width="100" height="30"></rect><rect x="670" y="120" width="90" height="30"></rect><rect x="830" y="620" width="40" height="120"></rect><rect x="830" y="820" width="130" height="40"></rect><rect fill="#055ee3" x="200" y="500" width="120" height="20"></rect><rect fill="#055ee3" x="680" y="480" width="120" height="20"></rect><rect fill="#490fd1" x="200" y="480" width="120" height="20"></rect><rect fill="#490fd1" x="680" y="500" width="120" height="20"></rect><rect fill="#f5499c" x="450" y="250" width="100" height="20"></rect><rect fill="#f5499c" x="450" y="730" width="100" height="20"></rect></svg>