<svg xmlns="http://www.w3.org/2000/svg" viewBox="0 0 900 900" width="200" height="200" fill="white"><rect x="0" y="0" width="900" height="80"></rect><rect x="820" y="80" width="80" height="300"></rect><rect x="0" y="80" width="80" height="300"></rect><rect x="80" y="80" width="120" height="100"></rect><rect x="700" y="80" width="120" height="100"></rect><rect x="0" y="380" width="40" height="520"></rect><rect x="860" y="380" width="40" height="520"></rect><rect x="40" y="850" width="820" height="50"></rect><rect x="600" y="590" width="180" height="180"></rect><rect x="120" y="590" width="180" height="180"></rect><rect x="380" y="590" width="140" height="180"></rect><rect x="420" y="180" width="60" height="310"></rect><rect x="160" y="260" width="180" height="230"></rect><rect x="560" y="260" width="180" height="230"></rect><rect x="280" y="170" width="10" height="10"></rect><rect x="280" y="160" width="60" height="20"></rect><rect x="560" y="160" width="60" height="20"></rect></svg>