<svg xmlns="http://www.w3.org/2000/svg" viewBox="0 0 1500 1000" width="200" height="200" fill="white"><rect x="0" y="80" width="80" height="920"></rect><rect x="1420" y="0" width="80" height="920"></rect><rect x="0" y="0" width="1420" height="80"></rect><rect x="660" y="820" width="40" height="100"></rect><rect x="800" y="820" width="40" height="100"></rect><rect x="800" y="80" width="40" height="100"></rect><rect x="660" y="80" width="40" height="100"></rect><rect x="320" y="820" width="40" height="100"></rect><rect x="80" y="920" width="1420" height="80"></rect><rect x="300" y="410" width="40" height="180"></rect><rect x="80" y="410" width="120" height="40"></rect><rect x="80" y="550" width="120" height="40"></rect><rect x="1160" y="410" width="40" height="180"></rect><rect x="1300" y="410" width="120" height="40"></rect><rect x="1300" y="550" width="120" height="40"></rect><rect x="180" y="720" width="40" height="100"></rect><rect x="740" y="490" width="20" height="20"></rect><rect x="760" y="370" width="120" height="40"></rect><rect x="840" y="410" width="40" height="80"></rect><rect x="660" y="590" width="80" height="40"></rect><rect x="620" y="710" width="260" height="30"></rect><rect x="620" y="260" width="260" height="30"></rect><rect x="340" y="550" width="90" height="40"></rect><rect x="510" y="710" width="60" height="30"></rect><rect x="530" y="860" width="60" height="20"></rect><rect x="410" y="640" width="30" height="50"></rect><rect x="420" y="760" width="40" height="60"></rect><rect x="340" y="410" width="90" height="40"></rect><rect x="620" y="510" width="40" height="120"></rect><rect x="530" y="370" width="130" height="40"></rect><rect x="180" y="280" width="180" height="30"></rect><rect x="180" y="690" width="180" height="30"></rect><rect x="180" y="180" width="40" height="100"></rect><rect x="320" y="80" width="40" height="100"></rect><rect x="420" y="160" width="30" height="40"></rect><rect x="560" y="110" width="20" height="60"></rect><rect x="510" y="210" width="50" height="40"></rect><rect x="430" y="300" width="60" height="30"></rect><rect x="840" y="590" width="130" height="40"></rect><rect x="530" y="550" width="90" height="40"></rect><rect x="880" y="410" width="90" height="40"></rect><rect x="1070" y="410" width="90" height="40"></rect><rect x="1070" y="550" width="90" height="40"></rect><rect x="1140" y="690" width="180" height="30"></rect><rect x="1280" y="720" width="40" height="100"></rect><rect x="1140" y="820" width="40" height="100"></rect><rect x="1020" y="860" width="60" height="30"></rect><rect x="900" y="800" width="30" height="70"></rect><rect x="1050" y="740" width="60" height="30"></rect><rect x="940" y="680" width="60" height="20"></rect><rect x="1060" y="640" width="20" height="40"></rect><rect x="1140" y="280" width="180" height="30"></rect><rect x="1280" y="180" width="40" height="100"></rect><rect x="1140" y="80" width="40" height="100"></rect><rect x="910" y="120" width="50" height="30"></rect><rect x="1040" y="310" width="10" height="60"></rect><rect x="1050" y="210" width="60" height="20"></rect><rect x="930" y="300" width="30" height="50"></rect><rect x="940" y="200" width="50" height="30"></rect><rect x="530" y="470" width="20" height="20"></rect><rect x="950" y="510" width="20" height="20"></rect></svg>