<svg xmlns="http://www.w3.org/2000/svg" viewBox="0 0 600 600" width="200" height="200" fill="currentColor"><rect x="150" y="0" width="300" height="30"></rect><rect x="0" y="0" width="30" height="30"></rect><rect x="570" y="0" width="30" height="30"></rect><rect x="0" y="570" width="30" height="30"></rect><rect x="150" y="570" width="300" height="30"></rect><rect x="570" y="570" width="30" height="30"></rect><rect x="0" y="150" width="30" height="300"></rect><rect x="570" y="150" width="30" height="300"></rect><rect x="30" y="0" width="120" height="10"></rect><rect x="450" y="0" width="120" height="10"></rect><rect x="590" y="30" width="10" height="120"></rect><rect x="590" y="450" width="10" height="120"></rect><rect x="450" y="590" width="120" height="10"></rect><rect x="30" y="590" width="120" height="10"></rect><rect x="0" y="450" width="10" height="120"></rect><rect x="0" y="30" width="10" height="120"></rect><circle cx="300" cy="300" r="80"></circle><circle cx="300.00000000000006" cy="125" r="50"></circle><circle cx="300.00000000000006" cy="475" r="50"></circle></svg>