<svg xmlns="http://www.w3.org/2000/svg" viewBox="0 0 1200 1200" width="200" height="200" fill="white"><rect x="0" y="0" width="1200" height="30"></rect><rect x="1170" y="30" width="30" height="1170"></rect><rect x="0" y="1170" width="1170" height="30"></rect><rect x="0" y="30" width="30" height="1140"></rect><rect x="660" y="1020" width="30" height="150"></rect><rect x="510" y="1020" width="30" height="150"></rect><rect x="510" y="840" width="180" height="180"></rect><rect x="30" y="660" width="150" height="30"></rect><rect x="30" y="510" width="150" height="30"></rect><rect x="180" y="510" width="180" height="180"></rect><rect x="510" y="30" width="30" height="150"></rect><rect x="660" y="30" width="30" height="150"></rect><rect x="510" y="180" width="180" height="180"></rect><rect x="1020" y="510" width="150" height="30"></rect><rect x="1020" y="660" width="150" height="30"></rect><rect x="840" y="510" width="180" height="180"></rect><rect x="360" y="510" width="30" height="180"></rect><rect x="510" y="360" width="180" height="30"></rect><rect x="810" y="510" width="30" height="180"></rect><rect x="510" y="810" width="180" height="30"></rect><rect x="390" y="660" width="60" height="30"></rect><rect x="390" y="510" width="60" height="30"></rect><rect x="510" y="390" width="30" height="60"></rect><rect x="660" y="390" width="30" height="60"></rect><rect x="750" y="510" width="60" height="30"></rect><rect x="750" y="660" width="60" height="30"></rect><rect x="660" y="750" width="30" height="60"></rect><rect x="510" y="750" width="30" height="60"></rect><rect x="700" y="460" width="40" height="40"></rect><rect x="460" y="460" width="40" height="40"></rect><rect x="460" y="700" width="40" height="40"></rect><rect x="700" y="700" width="40" height="40"></rect><rect x="150" y="900" width="60" height="60"></rect><rect x="330" y="900" width="30" height="60"></rect><rect x="150" y="870" width="210" height="30"></rect><rect x="300" y="210" width="30" height="150"></rect><rect x="240" y="150" width="90" height="60"></rect><rect x="240" y="330" width="60" height="30"></rect><rect x="840" y="300" width="210" height="30"></rect><rect x="990" y="240" width="60" height="60"></rect><rect x="840" y="240" width="30" height="60"></rect><rect x="870" y="840" width="30" height="150"></rect><rect x="870" y="990" width="90" height="60"></rect><rect x="900" y="840" width="60" height="30"></rect><rect x="150" y="1110" width="60" height="60"></rect><rect x="330" y="1110" width="30" height="60"></rect><rect x="1110" y="990" width="60" height="60"></rect><rect x="1110" y="840" width="60" height="30"></rect><rect x="840" y="30" width="30" height="60"></rect><rect x="990" y="30" width="60" height="60"></rect><rect x="30" y="150" width="60" height="60"></rect><rect x="30" y="330" width="60" height="30"></rect><rect x="580" y="580" width="40" height="40"></rect><rect x="690" y="1020" width="30" height="30"></rect><rect x="150" y="480" width="30" height="30"></rect><rect x="480" y="150" width="30" height="30"></rect><rect x="1020" y="690" width="30" height="30"></rect></svg>