<svg xmlns="http://www.w3.org/2000/svg" viewBox="0 0 1200 1200" width="200" height="200" fill="white"><rect x="0" y="0" width="40" height="1200"></rect><rect x="40" y="1160" width="1160" height="40"></rect><rect x="1160" y="0" width="40" height="1160"></rect><rect x="40" y="0" width="1120" height="40"></rect><rect x="140" y="140" width="40" height="300"></rect><rect x="760" y="140" width="300" height="40"></rect><rect x="1020" y="760" width="40" height="300"></rect><rect x="140" y="1020" width="300" height="40"></rect><rect x="540" y="1020" width="140" height="40"></rect><rect x="780" y="1020" width="140" height="40"></rect><rect x="1020" y="520" width="40" height="140"></rect><rect x="1020" y="280" width="40" height="140"></rect><rect x="520" y="140" width="140" height="40"></rect><rect x="280" y="140" width="140" height="40"></rect><rect x="140" y="540" width="40" height="140"></rect><rect x="140" y="780" width="40" height="140"></rect><rect x="280" y="280" width="40" height="300"></rect><rect x="280" y="680" width="40" height="40"></rect><rect x="680" y="880" width="40" height="40"></rect><rect x="280" y="880" width="300" height="40"></rect><rect x="280" y="820" width="40" height="60"></rect><rect x="820" y="880" width="60" height="40"></rect><rect x="880" y="620" width="40" height="300"></rect><rect x="880" y="480" width="40" height="40"></rect><rect x="880" y="320" width="40" height="60"></rect><rect x="620" y="280" width="300" height="40"></rect><rect x="480" y="280" width="40" height="40"></rect><rect x="320" y="280" width="60" height="40"></rect><rect x="420" y="420" width="200" height="40"></rect><rect x="740" y="420" width="40" height="200"></rect><rect x="720" y="420" width="20" height="40"></rect><rect x="740" y="720" width="40" height="20"></rect><rect x="580" y="740" width="200" height="40"></rect><rect x="460" y="740" width="20" height="40"></rect><rect x="420" y="580" width="40" height="200"></rect><rect x="420" y="460" width="40" height="20"></rect><rect x="530" y="530" width="40" height="40"></rect><rect x="630" y="530" width="40" height="40"></rect><rect x="630" y="630" width="40" height="40"></rect><rect x="530" y="630" width="40" height="40"></rect></svg>