<svg xmlns="http://www.w3.org/2000/svg" viewBox="0 0 900 900" width="200" height="200" fill="white"><rect x="0" y="0" width="900" height="30"></rect><rect x="870" y="30" width="30" height="870"></rect><rect x="0" y="870" width="870" height="30"></rect><rect x="0" y="30" width="30" height="840"></rect><rect x="120" y="120" width="30" height="270"></rect><rect x="240" y="120" width="240" height="30"></rect><rect x="240" y="150" width="30" height="120"></rect><rect x="240" y="360" width="150" height="30"></rect><rect x="630" y="120" width="150" height="30"></rect><rect x="720" y="150" width="30" height="180"></rect><rect x="600" y="330" width="150" height="30"></rect><rect x="750" y="240" width="30" height="30"></rect><rect x="480" y="120" width="30" height="240"></rect><rect x="360" y="390" width="30" height="90"></rect><rect x="240" y="480" width="30" height="90"></rect><rect x="240" y="570" width="150" height="30"></rect><rect x="750" y="480" width="30" height="120"></rect><rect x="600" y="570" width="150" height="30"></rect><rect x="690" y="450" width="90" height="30"></rect><rect x="480" y="450" width="120" height="30"></rect><rect x="30" y="630" width="90" height="30"></rect><rect x="600" y="30" width="30" height="210"></rect><rect x="240" y="720" width="30" height="60"></rect><rect x="120" y="480" width="30" height="300"></rect><rect x="150" y="690" width="210" height="30"></rect><rect x="480" y="480" width="30" height="240"></rect><rect x="450" y="690" width="30" height="30"></rect><rect x="750" y="690" width="30" height="90"></rect><rect x="660" y="750" width="90" height="30"></rect><rect x="630" y="690" width="30" height="90"></rect><rect x="510" y="690" width="120" height="30"></rect><rect x="450" y="720" width="30" height="60"></rect><rect x="480" y="750" width="150" height="30"></rect><rect x="270" y="240" width="120" height="30"></rect></svg>